ISO-10303-21;
HEADER;
FILE_DESCRIPTION (( 'STEP AP214' ),
    '1' );
FILE_NAME ('RailCap.STEP',
    '2025-02-08T10:49:28',
    ( '' ),
    ( '' ),
    'SwSTEP 2.0',
    'SolidWorks 2020',
    '' );
FILE_SCHEMA (( 'AUTOMOTIVE_DESIGN' ));
ENDSEC;

DATA;
#1 =( LENGTH_UNIT ( ) NAMED_UNIT ( * ) SI_UNIT ( .MILLI., .METRE. ) );
#2 =( NAMED_UNIT ( * ) PLANE_ANGLE_UNIT ( ) SI_UNIT ( $, .RADIAN. ) );
#3 = DIRECTION ( 'NONE',  ( -0.000000000000000000, -0.000000000000000000, -1.000000000000000000 ) ) ;
#4 = CLOSED_SHELL ( 'NONE', ( #43, #197, #317, #330, #33, #217, #283, #176, #129, #155 ) ) ;
#5 = CYLINDRICAL_SURFACE ( 'NONE', #295, 0.9999999999999940048 ) ;
#6 = EDGE_CURVE ( 'NONE', #269, #246, #170, .T. ) ;
#7 = FILL_AREA_STYLE_COLOUR ( '', #57 ) ;
#8 = ORIENTED_EDGE ( 'NONE', *, *, #303, .T. ) ;
#9 = DIRECTION ( 'NONE',  ( -0.000000000000000000, -0.000000000000000000, -1.000000000000000000 ) ) ;
#10 = LINE ( 'NONE', #220, #152 ) ;
#11 = FACE_OUTER_BOUND ( 'NONE', #227, .T. ) ;
#12 = ORIENTED_EDGE ( 'NONE', *, *, #68, .F. ) ;
#13 = EDGE_LOOP ( 'NONE', ( #296, #177, #72, #38, #128, #250, #309, #14 ) ) ;
#14 = ORIENTED_EDGE ( 'NONE', *, *, #138, .F. ) ;
#15 = EDGE_CURVE ( 'NONE', #69, #223, #308, .T. ) ;
#16 = EDGE_LOOP ( 'NONE', ( #8, #172, #272, #193 ) ) ;
#17 = ORIENTED_EDGE ( 'NONE', *, *, #173, .F. ) ;
#18 = CARTESIAN_POINT ( 'NONE',  ( 22.30989209787647809, 4.734862104586006204, 3.000000000000000000 ) ) ;
#19 = AXIS2_PLACEMENT_3D ( 'NONE', #206, #182, #54 ) ;
#20 = DIRECTION ( 'NONE',  ( -0.3090172668271251033, -0.9510564277700316316, 0.000000000000000000 ) ) ;
#21 = UNCERTAINTY_MEASURE_WITH_UNIT (LENGTH_MEASURE( 1.000000000000000082E-05 ), #265, 'distance_accuracy_value', 'NONE');
#22 = PLANE ( 'NONE',  #157 ) ;
#23 = PLANE ( 'NONE',  #50 ) ;
#24 = LINE ( 'NONE', #85, #180 ) ;
#25 = CARTESIAN_POINT ( 'NONE',  ( -26.82343288467634679, 5.607011002185147142, 3.000000000000000000 ) ) ;
#26 = EDGE_CURVE ( 'NONE', #69, #333, #95, .T. ) ;
#27 = DIRECTION ( 'NONE',  ( -0.000000000000000000, -0.000000000000000000, -1.000000000000000000 ) ) ;
#28 = CARTESIAN_POINT ( 'NONE',  ( 22.30728991177827680, 5.734858718894028762, 3.000000000000000000 ) ) ;
#29 = CARTESIAN_POINT ( 'NONE',  ( 22.61626739486032278, 6.699421432926513376, 3.000000000000000000 ) ) ;
#30 = AXIS2_PLACEMENT_3D ( 'NONE', #25, #136, #158 ) ;
#31 = CARTESIAN_POINT ( 'NONE',  ( -23.04197879005939598, 20.48118379581785931, 3.000000000000000000 ) ) ;
#32 = ORIENTED_EDGE ( 'NONE', *, *, #98, .T. ) ;
#33 = ADVANCED_FACE ( 'NONE', ( #312 ), #101, .T. ) ;
#34 = DIRECTION ( 'NONE',  ( 1.000000000000000000, 0.000000000000000000, 0.000000000000000000 ) ) ;
#35 = ORIENTED_EDGE ( 'NONE', *, *, #73, .T. ) ;
#36 = PRESENTATION_STYLE_ASSIGNMENT (( #241 ) ) ;
#37 = DIRECTION ( 'NONE',  ( 0.000000000000000000, 0.000000000000000000, 1.000000000000000000 ) ) ;
#38 = ORIENTED_EDGE ( 'NONE', *, *, #235, .F. ) ;
#39 = VECTOR ( 'NONE', #259, 1000.000000000000000 ) ;
#40 = DIRECTION ( 'NONE',  ( 1.000000000000000000, 0.000000000000000000, 0.000000000000000000 ) ) ;
#41 =( GEOMETRIC_REPRESENTATION_CONTEXT ( 3 ) GLOBAL_UNCERTAINTY_ASSIGNED_CONTEXT ( ( #226 ) ) GLOBAL_UNIT_ASSIGNED_CONTEXT ( ( #1, #140, #61 ) ) REPRESENTATION_CONTEXT ( 'NONE', 'WORKASPACE' ) );
#42 = VERTEX_POINT ( 'NONE', #286 ) ;
#43 = ADVANCED_FACE ( 'NONE', ( #82 ), #232, .T. ) ;
#44 = VERTEX_POINT ( 'NONE', #55 ) ;
#45 = DIRECTION ( 'NONE',  ( -0.9999966143080235570, -0.002602186098208943404, 0.000000000000000000 ) ) ;
#46 = EDGE_CURVE ( 'NONE', #311, #248, #211, .T. ) ;
#47 = ORIENTED_EDGE ( 'NONE', *, *, #64, .F. ) ;
#48 = ORIENTED_EDGE ( 'NONE', *, *, #253, .F. ) ;
#49 = DIRECTION ( 'NONE',  ( 0.002602186098208943837, -0.9999966143080236680, 0.000000000000000000 ) ) ;
#50 = AXIS2_PLACEMENT_3D ( 'NONE', #135, #110, #159 ) ;
#51 = DIRECTION ( 'NONE',  ( 1.000000000000000000, 0.000000000000000000, -0.000000000000000000 ) ) ;
#52 = CIRCLE ( 'NONE', #70, 1.000000000000004441 ) ;
#53 = EDGE_CURVE ( 'NONE', #42, #311, #255, .T. ) ;
#54 = DIRECTION ( 'NONE',  ( 1.000000000000000000, 0.000000000000000000, -0.000000000000000000 ) ) ;
#55 = CARTESIAN_POINT ( 'NONE',  ( 23.30726715267158866, 5.741605399217994510, 3.000000000000000000 ) ) ;
#56 = DIRECTION ( 'NONE',  ( 0.9999966143080235570, 0.002602186098208943404, 0.000000000000000000 ) ) ;
#57 = COLOUR_RGB ( '',0.7921568627450980005, 0.8196078431372548767, 0.9333333333333333481 ) ;
#58 = CARTESIAN_POINT ( 'NONE',  ( -27.77448931244638075, 5.916028269012272744, 3.000000000000000000 ) ) ;
#59 = PLANE ( 'NONE',  #285 ) ;
#60 = ORIENTED_EDGE ( 'NONE', *, *, #15, .F. ) ;
#61 =( NAMED_UNIT ( * ) SI_UNIT ( $, .STERADIAN. ) SOLID_ANGLE_UNIT ( ) );
#62 = STYLED_ITEM ( 'NONE', ( #36 ), #126 ) ;
#63 = ORIENTED_EDGE ( 'NONE', *, *, #15, .T. ) ;
#64 = EDGE_CURVE ( 'NONE', #44, #263, #238, .T. ) ;
#65 = DIRECTION ( 'NONE',  ( 0.000000000000000000, 0.000000000000000000, 1.000000000000000000 ) ) ;
#66 = DIRECTION ( 'NONE',  ( 0.000000000000000000, 0.000000000000000000, 1.000000000000000000 ) ) ;
#67 = CARTESIAN_POINT ( 'NONE',  ( -21.78194487920731959, 21.12323588237580196, 3.000000000000000000 ) ) ;
#68 = EDGE_CURVE ( 'NONE', #333, #248, #291, .T. ) ;
#69 = VERTEX_POINT ( 'NONE', #18 ) ;
#70 = AXIS2_PLACEMENT_3D ( 'NONE', #233, #134, #342 ) ;
#71 = ORIENTED_EDGE ( 'NONE', *, *, #326, .T. ) ;
#72 = ORIENTED_EDGE ( 'NONE', *, *, #124, .F. ) ;
#73 = EDGE_CURVE ( 'NONE', #199, #42, #287, .T. ) ;
#74 = ORIENTED_EDGE ( 'NONE', *, *, #322, .F. ) ;
#75 = EDGE_LOOP ( 'NONE', ( #148, #281, #47, #335 ) ) ;
#76 = DIRECTION ( 'NONE',  ( 0.000000000000000000, 0.000000000000000000, 1.000000000000000000 ) ) ;
#77 = FACE_OUTER_BOUND ( 'NONE', #143, .T. ) ;
#78 = AXIS2_PLACEMENT_3D ( 'NONE', #179, #293, #132 ) ;
#79 = CARTESIAN_POINT ( 'NONE',  ( -26.82083069857814905, 4.607014387877126360, 3.000000000000000000 ) ) ;
#80 =( LENGTH_UNIT ( ) NAMED_UNIT ( * ) SI_UNIT ( .MILLI., .METRE. ) );
#81 = DIRECTION ( 'NONE',  ( 0.9510693533850637094, -0.3089774830820470886, 0.000000000000000000 ) ) ;
#82 = FACE_OUTER_BOUND ( 'NONE', #229, .T. ) ;
#83 = CARTESIAN_POINT ( 'NONE',  ( -22.09092236228937622, 20.17216652899073992, 3.000000000000000000 ) ) ;
#84 = AXIS2_PLACEMENT_3D ( 'NONE', #271, #37, #166 ) ;
#85 = CARTESIAN_POINT ( 'NONE',  ( 23.30726715267158866, 5.741605399217994510, 3.000000000000000000 ) ) ;
#86 = CARTESIAN_POINT ( 'NONE',  ( -22.09092236228937622, 20.17216652899073992, 0.000000000000000000 ) ) ;
#87 = DIRECTION ( 'NONE',  ( 0.000000000000000000, 0.000000000000000000, 1.000000000000000000 ) ) ;
#88 = DIRECTION ( 'NONE',  ( 0.9510693533850637094, -0.3089774830820470886, 0.000000000000000000 ) ) ;
#89 = DIRECTION ( 'NONE',  ( 1.000000000000000000, 0.000000000000000000, 0.000000000000000000 ) ) ;
#90 = DIRECTION ( 'NONE',  ( 0.000000000000000000, 0.000000000000000000, 1.000000000000000000 ) ) ;
#91 = EDGE_CURVE ( 'NONE', #269, #199, #284, .T. ) ;
#92 = DIRECTION ( 'NONE',  ( 0.9510564277700316316, -0.3090172668271251033, 0.000000000000000000 ) ) ;
#93 = CARTESIAN_POINT ( 'NONE',  ( -23.04197879005939598, 20.48118379581785931, 3.000000000000000000 ) ) ;
#94 = VECTOR ( 'NONE', #288, 1000.000000000000000 ) ;
#95 = LINE ( 'NONE', #279, #331 ) ;
#96 = APPLICATION_CONTEXT ( 'automotive_design' ) ;
#97 = ORIENTED_EDGE ( 'NONE', *, *, #73, .F. ) ;
#98 = EDGE_CURVE ( 'NONE', #199, #267, #234, .T. ) ;
#99 = ORIENTED_EDGE ( 'NONE', *, *, #91, .F. ) ;
#100 = VECTOR ( 'NONE', #20, 1000.000000000000000 ) ;
#101 = PLANE ( 'NONE',  #171 ) ;
#102 = EDGE_CURVE ( 'NONE', #263, #332, #315, .T. ) ;
#103 = DIRECTION ( 'NONE',  ( -0.000000000000000000, -0.000000000000000000, -1.000000000000000000 ) ) ;
#104 = CARTESIAN_POINT ( 'NONE',  ( 23.30726715267158866, 5.741605399217994510, 0.000000000000000000 ) ) ;
#105 = APPLICATION_PROTOCOL_DEFINITION ( 'draft international standard', 'automotive_design', 1998, #96 ) ;
#106 = CARTESIAN_POINT ( 'NONE',  ( -21.78194487920731959, 21.12323588237580196, 3.000000000000000000 ) ) ;
#107 = CARTESIAN_POINT ( 'NONE',  ( -23.04197879005939598, 20.48118379581785931, 3.000000000000000000 ) ) ;
#108 = FACE_OUTER_BOUND ( 'NONE', #16, .T. ) ;
#109 = VECTOR ( 'NONE', #278, 1000.000000000000000 ) ;
#110 = DIRECTION ( 'NONE',  ( 0.3089774830820471996, 0.9510693533850638204, -0.000000000000000000 ) ) ;
#111 = SHAPE_DEFINITION_REPRESENTATION ( #324, #126 ) ;
#112 = SURFACE_STYLE_USAGE ( .BOTH. , #216 ) ;
#113 = APPLICATION_PROTOCOL_DEFINITION ( 'draft international standard', 'automotive_design', 1998, #120 ) ;
#114 = LINE ( 'NONE', #67, #237 ) ;
#115 = DIRECTION ( 'NONE',  ( -1.000000000000000000, 0.000000000000000000, 0.000000000000000000 ) ) ;
#116 = PRODUCT_RELATED_PRODUCT_CATEGORY ( 'part', '', ( #304 ) ) ;
#117 = CARTESIAN_POINT ( 'NONE',  ( -23.04197879005939598, 20.48118379581785931, 3.000000000000000000 ) ) ;
#118 = ORIENTED_EDGE ( 'NONE', *, *, #64, .T. ) ;
#119 = CYLINDRICAL_SURFACE ( 'NONE', #147, 1.000000000000004441 ) ;
#120 = APPLICATION_CONTEXT ( 'automotive_design' ) ;
#121 = EDGE_LOOP ( 'NONE', ( #17, #48, #122, #282 ) ) ;
#122 = ORIENTED_EDGE ( 'NONE', *, *, #270, .T. ) ;
#123 = VECTOR ( 'NONE', #198, 1000.000000000000000 ) ;
#124 = EDGE_CURVE ( 'NONE', #149, #332, #151, .T. ) ;
#125 = ORIENTED_EDGE ( 'NONE', *, *, #138, .T. ) ;
#126 = ADVANCED_BREP_SHAPE_REPRESENTATION ( 'RailCap', ( #191, #280 ), #300 ) ;
#127 = ORIENTED_EDGE ( 'NONE', *, *, #26, .F. ) ;
#128 = ORIENTED_EDGE ( 'NONE', *, *, #322, .T. ) ;
#129 = ADVANCED_FACE ( 'NONE', ( #77 ), #22, .T. ) ;
#130 = AXIS2_PLACEMENT_3D ( 'NONE', #28, #167, #161 ) ;
#131 = AXIS2_PLACEMENT_3D ( 'NONE', #183, #256, #313 ) ;
#132 = DIRECTION ( 'NONE',  ( 1.000000000000000000, 0.000000000000000000, 0.000000000000000000 ) ) ;
#133 = CARTESIAN_POINT ( 'NONE',  ( -22.09092236228937622, 20.17216652899073992, 3.000000000000000000 ) ) ;
#134 = DIRECTION ( 'NONE',  ( 0.000000000000000000, 0.000000000000000000, 1.000000000000000000 ) ) ;
#135 = CARTESIAN_POINT ( 'NONE',  ( -21.78194487920731959, 21.12323588237580196, 3.000000000000000000 ) ) ;
#136 = DIRECTION ( 'NONE',  ( -0.000000000000000000, -0.000000000000000000, -1.000000000000000000 ) ) ;
#137 = CARTESIAN_POINT ( 'NONE',  ( 22.30728991177827325, 5.748352079541447779, 3.000000000000000000 ) ) ;
#138 = EDGE_CURVE ( 'NONE', #246, #267, #153, .T. ) ;
#139 = CARTESIAN_POINT ( 'NONE',  ( 22.30989209787647809, 4.734862104586006204, 0.000000000000000000 ) ) ;
#140 =( NAMED_UNIT ( * ) PLANE_ANGLE_UNIT ( ) SI_UNIT ( $, .RADIAN. ) );
#141 = FACE_OUTER_BOUND ( 'NONE', #261, .T. ) ;
#142 = VECTOR ( 'NONE', #185, 1000.000000000000000 ) ;
#143 = EDGE_LOOP ( 'NONE', ( #71, #225, #35, #310, #127, #146, #118, #276 ) ) ;
#144 = UNCERTAINTY_MEASURE_WITH_UNIT (LENGTH_MEASURE( 1.000000000000000082E-05 ), #80, 'distance_accuracy_value', 'NONE');
#145 = ORIENTED_EDGE ( 'NONE', *, *, #68, .T. ) ;
#146 = ORIENTED_EDGE ( 'NONE', *, *, #222, .T. ) ;
#147 = AXIS2_PLACEMENT_3D ( 'NONE', #277, #189, #221 ) ;
#148 = ORIENTED_EDGE ( 'NONE', *, *, #124, .T. ) ;
#149 = VERTEX_POINT ( 'NONE', #104 ) ;
#150 = CARTESIAN_POINT ( 'NONE',  ( 22.30989209787647809, 4.734862104586007092, 3.000000000000000000 ) ) ;
#151 = CIRCLE ( 'NONE', #131, 1.000000000000000888 ) ;
#152 = VECTOR ( 'NONE', #328, 1000.000000000000114 ) ;
#153 = LINE ( 'NONE', #318, #100 ) ;
#154 = CARTESIAN_POINT ( 'NONE',  ( -27.77448931244638075, 5.916028269012272744, 3.000000000000000000 ) ) ;
#155 = ADVANCED_FACE ( 'NONE', ( #258 ), #340, .F. ) ;
#156 = FACE_OUTER_BOUND ( 'NONE', #121, .T. ) ;
#157 = AXIS2_PLACEMENT_3D ( 'NONE', #133, #209, #51 ) ;
#158 = DIRECTION ( 'NONE',  ( -1.000000000000000000, 0.000000000000000000, 0.000000000000000000 ) ) ;
#159 = DIRECTION ( 'NONE',  ( -0.9510693533850637094, 0.3089774830820471441, 0.000000000000000000 ) ) ;
#160 = EDGE_CURVE ( 'NONE', #267, #311, #52, .T. ) ;
#161 = DIRECTION ( 'NONE',  ( 1.000000000000000000, 0.000000000000000000, 0.000000000000000000 ) ) ;
#162 = VERTEX_POINT ( 'NONE', #106 ) ;
#163 = PRESENTATION_LAYER_ASSIGNMENT (  '', '', ( #306 ) ) ;
#164 = ORIENTED_EDGE ( 'NONE', *, *, #53, .T. ) ;
#165 = SURFACE_SIDE_STYLE ('',( #208 ) ) ;
#166 = DIRECTION ( 'NONE',  ( 1.000000000000000000, 0.000000000000000000, 0.000000000000000000 ) ) ;
#167 = DIRECTION ( 'NONE',  ( 0.000000000000000000, 0.000000000000000000, 1.000000000000000000 ) ) ;
#168 = ORIENTED_EDGE ( 'NONE', *, *, #46, .T. ) ;
#169 = CIRCLE ( 'NONE', #251, 0.9999999999999940048 ) ;
#170 = LINE ( 'NONE', #93, #123 ) ;
#171 = AXIS2_PLACEMENT_3D ( 'NONE', #150, #49, #56 ) ;
#172 = ORIENTED_EDGE ( 'NONE', *, *, #6, .F. ) ;
#173 = EDGE_CURVE ( 'NONE', #196, #332, #207, .T. ) ;
#174 = CARTESIAN_POINT ( 'NONE',  ( 22.30989209787647809, 4.734862104586006204, 3.000000000000000000 ) ) ;
#175 = EDGE_LOOP ( 'NONE', ( #74, #60, #337, #145 ) ) ;
#176 = ADVANCED_FACE ( 'NONE', ( #156 ), #23, .T. ) ;
#177 = ORIENTED_EDGE ( 'NONE', *, *, #173, .T. ) ;
#178 = DIRECTION ( 'NONE',  ( 1.000000000000000000, 0.000000000000000000, 0.000000000000000000 ) ) ;
#179 = CARTESIAN_POINT ( 'NONE',  ( 22.30728991177827325, 5.748352079541447779, 3.000000000000000000 ) ) ;
#180 = VECTOR ( 'NONE', #27, 1000.000000000000000 ) ;
#181 = AXIS2_PLACEMENT_3D ( 'NONE', #299, #210, #242 ) ;
#182 = DIRECTION ( 'NONE',  ( 0.000000000000000000, 0.000000000000000000, 1.000000000000000000 ) ) ;
#183 = CARTESIAN_POINT ( 'NONE',  ( 22.30728991177827325, 5.748352079541447779, 0.000000000000000000 ) ) ;
#184 = CARTESIAN_POINT ( 'NONE',  ( -26.82083069857814905, 4.607014387877126360, 3.000000000000000000 ) ) ;
#185 = DIRECTION ( 'NONE',  ( -0.000000000000000000, -0.000000000000000000, -1.000000000000000000 ) ) ;
#186 = VECTOR ( 'NONE', #103, 1000.000000000000000 ) ;
#187 = CYLINDRICAL_SURFACE ( 'NONE', #254, 1.000000000000000888 ) ;
#188 = DIRECTION ( 'NONE',  ( 1.000000000000000000, 0.000000000000000000, 0.000000000000000000 ) ) ;
#189 = DIRECTION ( 'NONE',  ( -0.000000000000000000, -0.000000000000000000, -1.000000000000000000 ) ) ;
#190 =( NAMED_UNIT ( * ) PLANE_ANGLE_UNIT ( ) SI_UNIT ( $, .RADIAN. ) );
#191 = MANIFOLD_SOLID_BREP ( 'Boss-Extrude1', #4 ) ;
#192 = SURFACE_STYLE_FILL_AREA ( #213 ) ;
#193 = ORIENTED_EDGE ( 'NONE', *, *, #253, .T. ) ;
#194 = ORIENTED_EDGE ( 'NONE', *, *, #6, .T. ) ;
#195 = CARTESIAN_POINT ( 'NONE',  ( -21.78194487920731959, 21.12323588237580196, 0.000000000000000000 ) ) ;
#196 = VERTEX_POINT ( 'NONE', #195 ) ;
#197 = ADVANCED_FACE ( 'NONE', ( #108 ), #5, .T. ) ;
#198 = DIRECTION ( 'NONE',  ( -0.000000000000000000, -0.000000000000000000, -1.000000000000000000 ) ) ;
#199 = VERTEX_POINT ( 'NONE', #58 ) ;
#200 = ORIENTED_EDGE ( 'NONE', *, *, #222, .F. ) ;
#201 = EDGE_LOOP ( 'NONE', ( #125, #240, #99, #194 ) ) ;
#202 = AXIS2_PLACEMENT_3D ( 'NONE', #344, #252, #236 ) ;
#203 = CARTESIAN_POINT ( 'NONE',  ( -26.82343288467634679, 5.607011002185147142, 3.000000000000000000 ) ) ;
#204 = CARTESIAN_POINT ( 'NONE',  ( -27.82343288467635034, 5.607011002185147142, 3.000000000000000000 ) ) ;
#205 =( NAMED_UNIT ( * ) SI_UNIT ( $, .STERADIAN. ) SOLID_ANGLE_UNIT ( ) );
#206 = CARTESIAN_POINT ( 'NONE',  ( -22.09092236228937622, 20.17216652899073992, 0.000000000000000000 ) ) ;
#207 = LINE ( 'NONE', #316, #338 ) ;
#208 = SURFACE_STYLE_FILL_AREA ( #290 ) ;
#209 = DIRECTION ( 'NONE',  ( 0.000000000000000000, 0.000000000000000000, 1.000000000000000000 ) ) ;
#210 = DIRECTION ( 'NONE',  ( -0.000000000000000000, -0.000000000000000000, -1.000000000000000000 ) ) ;
#211 = CIRCLE ( 'NONE', #202, 1.000000000000004441 ) ;
#212 = MECHANICAL_DESIGN_GEOMETRIC_PRESENTATION_REPRESENTATION (  '', ( #306 ), #41 ) ;
#213 = FILL_AREA_STYLE ('',( #7 ) ) ;
#214 = CARTESIAN_POINT ( 'NONE',  ( -27.82343288467635034, 5.607011002185147142, 0.000000000000000000 ) ) ;
#215 =( NAMED_UNIT ( * ) SI_UNIT ( $, .STERADIAN. ) SOLID_ANGLE_UNIT ( ) );
#216 = SURFACE_SIDE_STYLE ('',( #192 ) ) ;
#217 = ADVANCED_FACE ( 'NONE', ( #141 ), #302, .T. ) ;
#218 =( GEOMETRIC_REPRESENTATION_CONTEXT ( 3 ) GLOBAL_UNCERTAINTY_ASSIGNED_CONTEXT ( ( #21 ) ) GLOBAL_UNIT_ASSIGNED_CONTEXT ( ( #265, #190, #215 ) ) REPRESENTATION_CONTEXT ( 'NONE', 'WORKASPACE' ) );
#219 = LINE ( 'NONE', #239, #321 ) ;
#220 = CARTESIAN_POINT ( 'NONE',  ( 22.30989209787647809, 4.734862104586007092, 0.000000000000000000 ) ) ;
#221 = DIRECTION ( 'NONE',  ( -1.000000000000000000, 0.000000000000000000, 0.000000000000000000 ) ) ;
#222 = EDGE_CURVE ( 'NONE', #69, #44, #264, .T. ) ;
#223 = VERTEX_POINT ( 'NONE', #139 ) ;
#224 = ORIENTED_EDGE ( 'NONE', *, *, #160, .T. ) ;
#225 = ORIENTED_EDGE ( 'NONE', *, *, #91, .T. ) ;
#226 = UNCERTAINTY_MEASURE_WITH_UNIT (LENGTH_MEASURE( 1.000000000000000082E-05 ), #1, 'distance_accuracy_value', 'NONE');
#227 = EDGE_LOOP ( 'NONE', ( #305, #97, #32, #224 ) ) ;
#228 = AXIS2_PLACEMENT_3D ( 'NONE', #319, #87, #34 ) ;
#229 = EDGE_LOOP ( 'NONE', ( #329, #164, #168, #12 ) ) ;
#230 = CIRCLE ( 'NONE', #84, 1.000000000000004441 ) ;
#231 = CARTESIAN_POINT ( 'NONE',  ( 22.61626739486032278, 6.699421432926513376, 3.000000000000000000 ) ) ;
#232 = CYLINDRICAL_SURFACE ( 'NONE', #30, 1.000000000000004441 ) ;
#233 = CARTESIAN_POINT ( 'NONE',  ( -26.82343288467634679, 5.607011002185147142, 0.000000000000000000 ) ) ;
#234 = LINE ( 'NONE', #154, #275 ) ;
#235 = EDGE_CURVE ( 'NONE', #223, #149, #244, .T. ) ;
#236 = DIRECTION ( 'NONE',  ( 1.000000000000000000, 0.000000000000000000, 0.000000000000000000 ) ) ;
#237 = VECTOR ( 'NONE', #266, 1000.000000000000000 ) ;
#238 = CIRCLE ( 'NONE', #78, 1.000000000000000888 ) ;
#239 = CARTESIAN_POINT ( 'NONE',  ( -21.78194487920731959, 21.12323588237580196, 3.000000000000000000 ) ) ;
#240 = ORIENTED_EDGE ( 'NONE', *, *, #98, .F. ) ;
#241 = SURFACE_STYLE_USAGE ( .BOTH. , #165 ) ;
#242 = DIRECTION ( 'NONE',  ( -1.000000000000000000, 0.000000000000000000, 0.000000000000000000 ) ) ;
#243 = DIRECTION ( 'NONE',  ( 0.3090172668271251033, 0.9510564277700316316, 0.000000000000000000 ) ) ;
#244 = CIRCLE ( 'NONE', #228, 1.000000000000000888 ) ;
#245 = ORIENTED_EDGE ( 'NONE', *, *, #235, .T. ) ;
#246 = VERTEX_POINT ( 'NONE', #260 ) ;
#247 = PRESENTATION_LAYER_ASSIGNMENT (  '', '', ( #62 ) ) ;
#248 = VERTEX_POINT ( 'NONE', #262 ) ;
#249 = ORIENTED_EDGE ( 'NONE', *, *, #336, .F. ) ;
#250 = ORIENTED_EDGE ( 'NONE', *, *, #46, .F. ) ;
#251 = AXIS2_PLACEMENT_3D ( 'NONE', #298, #65, #40 ) ;
#252 = DIRECTION ( 'NONE',  ( 0.000000000000000000, 0.000000000000000000, 1.000000000000000000 ) ) ;
#253 = EDGE_CURVE ( 'NONE', #162, #196, #114, .T. ) ;
#254 = AXIS2_PLACEMENT_3D ( 'NONE', #137, #3, #323 ) ;
#255 = LINE ( 'NONE', #204, #142 ) ;
#256 = DIRECTION ( 'NONE',  ( 0.000000000000000000, 0.000000000000000000, 1.000000000000000000 ) ) ;
#257 = EDGE_CURVE ( 'NONE', #42, #333, #230, .T. ) ;
#258 = FACE_OUTER_BOUND ( 'NONE', #13, .T. ) ;
#259 = DIRECTION ( 'NONE',  ( -0.000000000000000000, -0.000000000000000000, -1.000000000000000000 ) ) ;
#260 = CARTESIAN_POINT ( 'NONE',  ( -23.04197879005939598, 20.48118379581785931, 0.000000000000000000 ) ) ;
#261 = EDGE_LOOP ( 'NONE', ( #245, #249, #200, #63 ) ) ;
#262 = CARTESIAN_POINT ( 'NONE',  ( -26.82083069857814905, 4.607014387877126360, 0.000000000000000000 ) ) ;
#263 = VERTEX_POINT ( 'NONE', #29 ) ;
#264 = CIRCLE ( 'NONE', #130, 1.000000000000000888 ) ;
#265 =( LENGTH_UNIT ( ) NAMED_UNIT ( * ) SI_UNIT ( .MILLI., .METRE. ) );
#266 = DIRECTION ( 'NONE',  ( -0.000000000000000000, -0.000000000000000000, -1.000000000000000000 ) ) ;
#267 = VERTEX_POINT ( 'NONE', #325 ) ;
#268 = PRESENTATION_STYLE_ASSIGNMENT (( #112 ) ) ;
#269 = VERTEX_POINT ( 'NONE', #31 ) ;
#270 = EDGE_CURVE ( 'NONE', #162, #263, #219, .T. ) ;
#271 = CARTESIAN_POINT ( 'NONE',  ( -26.82343288467634679, 5.607011002185147142, 3.000000000000000000 ) ) ;
#272 = ORIENTED_EDGE ( 'NONE', *, *, #326, .F. ) ;
#273 = CIRCLE ( 'NONE', #320, 0.9999999999999940048 ) ;
#274 = COLOUR_RGB ( '',0.7921568627450980005, 0.8196078431372548767, 0.9333333333333333481 ) ;
#275 = VECTOR ( 'NONE', #339, 1000.000000000000000 ) ;
#276 = ORIENTED_EDGE ( 'NONE', *, *, #270, .F. ) ;
#277 = CARTESIAN_POINT ( 'NONE',  ( -26.82343288467634679, 5.607011002185147142, 3.000000000000000000 ) ) ;
#278 = DIRECTION ( 'NONE',  ( -0.000000000000000000, -0.000000000000000000, -1.000000000000000000 ) ) ;
#279 = CARTESIAN_POINT ( 'NONE',  ( 22.30989209787647809, 4.734862104586007092, 3.000000000000000000 ) ) ;
#280 = AXIS2_PLACEMENT_3D ( 'NONE', #307, #66, #89 ) ;
#281 = ORIENTED_EDGE ( 'NONE', *, *, #102, .F. ) ;
#282 = ORIENTED_EDGE ( 'NONE', *, *, #102, .T. ) ;
#283 = ADVANCED_FACE ( 'NONE', ( #327 ), #187, .T. ) ;
#284 = LINE ( 'NONE', #107, #94 ) ;
#285 = AXIS2_PLACEMENT_3D ( 'NONE', #117, #92, #243 ) ;
#286 = CARTESIAN_POINT ( 'NONE',  ( -27.82343288467635034, 5.607011002185147142, 3.000000000000000000 ) ) ;
#287 = CIRCLE ( 'NONE', #314, 1.000000000000004441 ) ;
#288 = DIRECTION ( 'NONE',  ( -0.3090172668271251033, -0.9510564277700316316, 0.000000000000000000 ) ) ;
#289 = PRODUCT_DEFINITION ( 'UNKNOWN', '', #341, #292 ) ;
#290 = FILL_AREA_STYLE ('',( #343 ) ) ;
#291 = LINE ( 'NONE', #79, #39 ) ;
#292 = PRODUCT_DEFINITION_CONTEXT ( 'detailed design', #120, 'design' ) ;
#293 = DIRECTION ( 'NONE',  ( 0.000000000000000000, 0.000000000000000000, 1.000000000000000000 ) ) ;
#294 = MECHANICAL_DESIGN_GEOMETRIC_PRESENTATION_REPRESENTATION (  '', ( #62 ), #218 ) ;
#295 = AXIS2_PLACEMENT_3D ( 'NONE', #83, #9, #115 ) ;
#296 = ORIENTED_EDGE ( 'NONE', *, *, #303, .F. ) ;
#297 = FACE_OUTER_BOUND ( 'NONE', #201, .T. ) ;
#298 = CARTESIAN_POINT ( 'NONE',  ( -22.09092236228937622, 20.17216652899073992, 3.000000000000000000 ) ) ;
#299 = CARTESIAN_POINT ( 'NONE',  ( 22.30728991177827680, 5.734858718894028762, 3.000000000000000000 ) ) ;
#300 =( GEOMETRIC_REPRESENTATION_CONTEXT ( 3 ) GLOBAL_UNCERTAINTY_ASSIGNED_CONTEXT ( ( #144 ) ) GLOBAL_UNIT_ASSIGNED_CONTEXT ( ( #80, #2, #205 ) ) REPRESENTATION_CONTEXT ( 'NONE', 'WORKASPACE' ) );
#301 = PRODUCT_CONTEXT ( 'NONE', #96, 'mechanical' ) ;
#302 = CYLINDRICAL_SURFACE ( 'NONE', #181, 1.000000000000000888 ) ;
#303 = EDGE_CURVE ( 'NONE', #196, #246, #273, .T. ) ;
#304 = PRODUCT ( 'RailCap', 'RailCap', '', ( #301 ) ) ;
#305 = ORIENTED_EDGE ( 'NONE', *, *, #53, .F. ) ;
#306 = STYLED_ITEM ( 'NONE', ( #268 ), #191 ) ;
#307 = CARTESIAN_POINT ( 'NONE',  ( 0.000000000000000000, 0.000000000000000000, 0.000000000000000000 ) ) ;
#308 = LINE ( 'NONE', #174, #109 ) ;
#309 = ORIENTED_EDGE ( 'NONE', *, *, #160, .F. ) ;
#310 = ORIENTED_EDGE ( 'NONE', *, *, #257, .T. ) ;
#311 = VERTEX_POINT ( 'NONE', #214 ) ;
#312 = FACE_OUTER_BOUND ( 'NONE', #175, .T. ) ;
#313 = DIRECTION ( 'NONE',  ( 1.000000000000000000, 0.000000000000000000, 0.000000000000000000 ) ) ;
#314 = AXIS2_PLACEMENT_3D ( 'NONE', #203, #76, #178 ) ;
#315 = LINE ( 'NONE', #231, #186 ) ;
#316 = CARTESIAN_POINT ( 'NONE',  ( -21.78194487920731959, 21.12323588237580196, 0.000000000000000000 ) ) ;
#317 = ADVANCED_FACE ( 'NONE', ( #297 ), #59, .F. ) ;
#318 = CARTESIAN_POINT ( 'NONE',  ( -23.04197879005939598, 20.48118379581785931, 0.000000000000000000 ) ) ;
#319 = CARTESIAN_POINT ( 'NONE',  ( 22.30728991177827680, 5.734858718894028762, 0.000000000000000000 ) ) ;
#320 = AXIS2_PLACEMENT_3D ( 'NONE', #86, #90, #188 ) ;
#321 = VECTOR ( 'NONE', #88, 1000.000000000000227 ) ;
#322 = EDGE_CURVE ( 'NONE', #223, #248, #10, .T. ) ;
#323 = DIRECTION ( 'NONE',  ( -1.000000000000000000, 0.000000000000000000, 0.000000000000000000 ) ) ;
#324 = PRODUCT_DEFINITION_SHAPE ( 'NONE', 'NONE',  #289 ) ;
#325 = CARTESIAN_POINT ( 'NONE',  ( -27.77448931244638075, 5.916028269012272744, 0.000000000000000000 ) ) ;
#326 = EDGE_CURVE ( 'NONE', #162, #269, #169, .T. ) ;
#327 = FACE_OUTER_BOUND ( 'NONE', #75, .T. ) ;
#328 = DIRECTION ( 'NONE',  ( -0.9999966143080235570, -0.002602186098208943404, 0.000000000000000000 ) ) ;
#329 = ORIENTED_EDGE ( 'NONE', *, *, #257, .F. ) ;
#330 = ADVANCED_FACE ( 'NONE', ( #11 ), #119, .T. ) ;
#331 = VECTOR ( 'NONE', #45, 1000.000000000000114 ) ;
#332 = VERTEX_POINT ( 'NONE', #334 ) ;
#333 = VERTEX_POINT ( 'NONE', #184 ) ;
#334 = CARTESIAN_POINT ( 'NONE',  ( 22.61626739486032278, 6.699421432926513376, 0.000000000000000000 ) ) ;
#335 = ORIENTED_EDGE ( 'NONE', *, *, #336, .T. ) ;
#336 = EDGE_CURVE ( 'NONE', #44, #149, #24, .T. ) ;
#337 = ORIENTED_EDGE ( 'NONE', *, *, #26, .T. ) ;
#338 = VECTOR ( 'NONE', #81, 1000.000000000000227 ) ;
#339 = DIRECTION ( 'NONE',  ( -0.000000000000000000, -0.000000000000000000, -1.000000000000000000 ) ) ;
#340 = PLANE ( 'NONE',  #19 ) ;
#341 = PRODUCT_DEFINITION_FORMATION_WITH_SPECIFIED_SOURCE ( 'ANY', '', #304, .NOT_KNOWN. ) ;
#342 = DIRECTION ( 'NONE',  ( 1.000000000000000000, 0.000000000000000000, 0.000000000000000000 ) ) ;
#343 = FILL_AREA_STYLE_COLOUR ( '', #274 ) ;
#344 = CARTESIAN_POINT ( 'NONE',  ( -26.82343288467634679, 5.607011002185147142, 0.000000000000000000 ) ) ;
ENDSEC;
END-ISO-10303-21;
